<?xml version="1.0" encoding="UTF-8"?>
<svg width="30px" height="30px" viewBox="0 0 30 30" version="1.1" xmlns="http://www.w3.org/2000/svg" xmlns:xlink="http://www.w3.org/1999/xlink">
    <title>insta</title>
    <g id="Symbols" stroke="none" stroke-width="1" fill="none" fill-rule="evenodd">
        <g id="Footer-V2" transform="translate(-177.000000, -338.000000)" fill="#FFFFFF">
            <path d="M192.000225,338.00015 C200.284496,338.00015 207.000225,344.715879 207.000225,353.00015 C207.000225,361.284421 200.284496,368.00015 192.000225,368.00015 C183.715954,368.00015 177.000225,361.284421 177.000225,353.00015 C177.000225,344.715879 183.715954,338.00015 192.000225,338.00015 Z M192.983566,344.006584 L190.977218,344.006654 C189.439143,344.0099 189.093956,344.022955 188.287886,344.059352 C187.330207,344.102575 186.676207,344.253098 186.103886,344.47321 C185.512279,344.700708 185.010493,345.005146 184.510314,345.500114 C184.0101,345.995118 183.702493,346.491642 183.472564,347.077086 C183.250136,347.643446 183.098064,348.290633 183.05435,349.238336 C183.045696,349.426031 183.038349,349.588472 183.032131,349.746978 L183.023627,349.984452 C183.009508,350.424184 183.003248,350.914783 183.00113,351.899645 L183.00113,351.899645 L183.00113,353.918748 C183.003248,354.903615 183.009508,355.394227 183.023627,355.833967 L183.032131,356.071445 C183.038349,356.229954 183.045696,356.392395 183.05435,356.58009 C183.098064,357.527758 183.250136,358.174981 183.472564,358.741305 C183.702493,359.32675 184.0101,359.823308 184.510314,360.318277 C185.010493,360.81328 185.512279,361.117683 186.103886,361.345252 C186.676207,361.565328 187.330207,361.715851 188.287886,361.75911 C189.13234,361.797209 189.470973,361.809718 191.205237,361.812171 L191.205237,361.812171 L192.76214,361.812209 C193.908754,361.81067 194.451206,361.804843 194.925323,361.790352 L194.925323,361.790352 L195.3002,361.776829 C195.427073,361.771649 195.559248,361.765771 195.706886,361.75911 C196.664564,361.715851 197.318564,361.565328 197.890886,361.345252 C198.482529,361.117683 198.984279,360.81328 199.484457,360.318277 C199.984671,359.823308 200.292279,359.326785 200.522207,358.741305 C200.744636,358.174981 200.896743,357.527758 200.940421,356.58009 C200.949076,356.392395 200.956424,356.229954 200.962644,356.071445 L200.971152,355.833967 C200.985279,355.394227 200.991552,354.903615 200.993674,353.918748 L200.993674,353.918748 L200.994354,353.450336 L200.994354,353.450336 L200.994354,352.368063 L200.993674,351.899657 C200.991552,350.914804 200.985279,350.424197 200.971152,349.984459 L200.962644,349.746981 C200.956424,349.588473 200.949076,349.426031 200.940421,349.238336 C200.896743,348.290633 200.744636,347.643446 200.522207,347.077086 C200.292279,346.491642 199.984671,345.995118 199.484457,345.500114 C198.984279,345.005146 198.482529,344.700708 197.890886,344.47321 C197.318564,344.253098 196.664564,344.102575 195.706886,344.059352 C195.48543,344.049353 195.298764,344.041115 195.112596,344.034359 L194.925323,344.028086 C194.482814,344.014552 193.980777,344.008573 192.983566,344.006584 L192.983566,344.006584 Z M192.999264,345.61079 C194.507797,345.613754 194.836073,345.625895 195.632993,345.661876 C196.510207,345.701495 196.9866,345.846539 197.303636,345.96847 C197.7236,346.129984 198.02335,346.322918 198.338171,346.63446 C198.652993,346.946037 198.847957,347.242629 199.011207,347.658219 C199.134386,347.971952 199.280957,348.443383 199.320993,349.311459 C199.357323,350.100078 199.369612,350.424959 199.372615,351.917766 L199.372615,351.917766 L199.372615,353.900639 C199.369612,355.393466 199.357323,355.718343 199.320993,356.506932 C199.280957,357.375044 199.134386,357.846474 199.011207,358.160207 C198.847957,358.575762 198.652993,358.872389 198.338171,359.183931 C198.02335,359.495509 197.7236,359.688442 197.303636,359.849956 C196.9866,359.971852 196.510207,360.116932 195.632993,360.156515 C194.79825,360.19421 194.477764,360.205767 192.775607,360.207998 L190.94794,360.207537 C189.479811,360.204402 189.150147,360.192116 188.361779,360.156515 C187.484564,360.116932 187.008136,359.971852 186.6911,359.849956 C186.271171,359.688442 185.971421,359.495509 185.6566,359.183931 C185.341779,358.872389 185.146779,358.575762 184.983564,358.160207 C184.860386,357.846474 184.713814,357.375044 184.673779,356.506967 C184.637419,355.718348 184.62515,355.393467 184.622155,353.90064 L184.622155,353.90064 L184.622155,351.917766 C184.62515,350.424959 184.637419,350.100078 184.673779,349.311459 C184.713814,348.443383 184.860386,347.971952 184.983564,347.658219 C185.146779,347.242629 185.341779,346.946037 185.6566,346.634495 C185.971421,346.322918 186.271171,346.129984 186.6911,345.96847 C187.008136,345.846539 187.484564,345.701495 188.361743,345.661876 C189.158693,345.625895 189.486973,345.613754 190.995508,345.61079 L190.995508,345.61079 Z M192.000244,348.00015 C189.238822,348.00015 187.000225,350.238708 187.000225,353.000131 C187.000225,355.761592 189.238822,358.00015 192.000244,358.00015 C194.761667,358.00015 197.000225,355.761592 197.000225,353.000131 C197.000225,350.238708 194.761667,348.00015 192.000244,348.00015 Z M192.000244,349.754534 C193.792738,349.754534 195.24588,351.207637 195.24588,353.000131 C195.24588,354.792624 193.792738,356.245766 192.000244,356.245766 C190.207751,356.245766 188.754609,354.792624 188.754609,353.000131 C188.754609,351.207637 190.207751,349.754534 192.000244,349.754534 Z M197.50025,347.00015 C196.671815,347.00015 196.000225,347.671701 196.000225,348.50015 C196.000225,349.328599 196.671815,350.00015 197.50025,350.00015 C198.328685,350.00015 199.000225,349.328599 199.000225,348.50015 C199.000225,347.671701 198.328685,347.00015 197.50025,347.00015 Z" id="insta"></path>
        </g>
    </g>
</svg>