<?xml version="1.0" encoding="UTF-8"?>
<svg width="30px" height="30px" viewBox="0 0 30 30" version="1.1" xmlns="http://www.w3.org/2000/svg" xmlns:xlink="http://www.w3.org/1999/xlink">
    <title>twitter</title>
    <g id="Symbols" stroke="none" stroke-width="1" fill="none" fill-rule="evenodd">
        <g id="Footer-V2" transform="translate(-141.000000, -338.000000)" fill="#FFFFFF">
            <path d="M163.270475,349.943236 C163.270475,354.614209 159.7621,360.00015 153.346725,360.00015 C151.375788,360.00015 149.544038,359.415471 148.000225,358.411933 C148.27435,358.443159 148.5506,358.460387 148.832163,358.460387 C150.46735,358.460387 151.969725,357.897243 153.162913,356.948619 C151.638225,356.91847 150.349412,355.896627 149.90635,354.493613 C150.11885,354.533453 150.336663,354.557141 150.561913,354.557141 C150.880662,354.557141 151.188787,354.512994 151.479913,354.433314 C149.886163,354.107057 148.68235,352.679276 148.68235,350.967232 L148.68235,350.923085 C149.1541,351.187967 149.690663,351.346251 150.26335,351.364555 C149.327288,350.731422 148.7121,349.648204 148.7121,348.422854 C148.7121,347.774646 148.884225,347.167355 149.18385,346.645128 C150.902975,348.784645 153.474225,350.19089 156.372725,350.338406 C156.313225,350.079984 156.282412,349.810795 156.282412,349.532991 C156.282412,347.58083 157.843225,346.00015 159.7706,346.00015 C160.772537,346.00015 161.679913,346.428699 162.315288,347.114594 C163.108975,346.956311 163.856975,346.662356 164.5306,346.256418 C164.269225,347.083368 163.717787,347.774646 162.997412,348.21181 C163.702912,348.127823 164.375475,347.937237 165.000225,347.65728 C164.532725,348.365786 163.941975,348.988152 163.25985,349.486691 C163.267288,349.638513 163.270475,349.789259 163.270475,349.943236 Z M141.000225,353.000375 C141.000225,361.286 147.716475,368.000375 156.000225,368.000375 C164.283975,368.000375 171.000225,361.286 171.000225,353.000375 C171.000225,344.716625 164.283975,338.000375 156.000225,338.000375 C147.716475,338.000375 141.000225,344.716625 141.000225,353.000375 Z" id="twitter"></path>
        </g>
    </g>
</svg>