<?xml version="1.0" encoding="UTF-8"?>
<svg width="30px" height="30px" viewBox="0 0 30 30" version="1.1" xmlns="http://www.w3.org/2000/svg" xmlns:xlink="http://www.w3.org/1999/xlink">
    <title>youtube</title>
    <g id="Symbols" stroke="none" stroke-width="1" fill="none" fill-rule="evenodd">
        <g id="Footer-V2" transform="translate(-213.000000, -338.000000)" fill="#FFFFFF">
            <path d="M228.000225,338.000375 C236.283975,338.000375 243.000225,344.716625 243.000225,353.000375 C243.000225,361.286 236.283975,368.000375 228.000225,368.000375 C219.716475,368.000375 213.000225,361.286 213.000225,353.000375 C213.000225,344.716625 219.716475,338.000375 228.000225,338.000375 Z M234.615385,346 L221.384615,346 C219.515077,346 218,347.532222 218,349.422222 L218,356.577778 C218,358.467778 219.515077,360 221.384615,360 L234.615385,360 C236.484615,360 238,358.467778 238,356.577778 L238,349.422222 C238,347.532222 236.484615,346 234.615385,346 Z M225.846769,349.422844 C225.920308,349.422844 225.992923,349.440889 226.058462,349.475111 L232.058462,352.586222 C232.285231,352.703822 232.374769,352.985067 232.258462,353.214356 C232.214462,353.301467 232.144308,353.3724 232.058462,353.416889 L232.058462,353.413778 L226.058462,356.524889 C225.832,356.643422 225.553538,356.554133 225.436308,356.325156 C225.402462,356.2592 225.384615,356.185778 225.384615,356.111111 L225.384615,349.888889 C225.384923,349.630978 225.591692,349.422533 225.846769,349.422844 Z" id="youtube"></path>
        </g>
    </g>
</svg>