<?xml version="1.0" encoding="UTF-8"?>
<svg width="28px" height="28px" viewBox="0 0 28 28" version="1.1" xmlns="http://www.w3.org/2000/svg" xmlns:xlink="http://www.w3.org/1999/xlink">
    <!-- Generator: Sketch 60.1 (88133) - https://sketch.com -->
    <title>arts-icon</title>
    <desc>Created with Sketch.</desc>
    <g id="Page-1" stroke="none" stroke-width="1" fill="none" fill-rule="evenodd">
        <g id="UpEffect---Crowdfund-(Desktop)---V4" transform="translate(-770.000000, -2759.000000)" fill="#66C3B8">
            <g id="Group-30" transform="translate(337.000000, 2406.000000)">
                <path d="M453.965576,356.92 L454.416261,357.368 C455.094954,358.042667 455.765647,358.725333 456.435006,359.408 L457.073698,360.058667 L458.639092,355.361333 L453.965576,356.92 Z M434.846162,356.198667 L434.843495,357.836 C434.843495,358.101333 434.847496,358.366667 434.856829,358.632 C434.86883,358.888 434.882164,359.14 434.906164,359.389333 C434.924832,359.576 434.947499,359.762667 434.974167,359.950667 C434.994168,360.088 435.018169,360.22 435.044837,360.352 C435.235511,361.305333 435.564857,362.004 436.054209,362.490667 C436.159547,362.594667 436.274218,362.690667 436.398223,362.778667 C436.611564,362.932 436.859574,363.06 437.130251,363.16 C437.5276,363.308 437.971618,363.397333 438.527639,363.441333 L438.70898,363.456 L438.911654,363.332 L442.167782,360.076 C442.167782,360.076 442.155781,359.637333 442.147781,359.501333 C442.109113,358.972 442.063778,358.56 441.978441,358.153333 C441.901105,357.788 441.807768,357.497333 441.681096,357.234667 C441.554424,356.965333 441.403752,356.758667 441.218411,356.6 C441.034404,356.444 440.806395,356.333333 440.521051,356.257333 C440.207705,356.177333 439.891693,356.153333 439.623682,356.14 L439.070327,356.129333 L437.802278,356.136 C437.600937,356.132 437.394262,356.126667 437.187587,356.117333 C436.83024,356.097333 436.470226,356.06 436.111545,355.996 C435.887536,355.953333 435.664861,355.898667 435.443519,355.836 L434.943499,355.689333 L434.846162,356.198667 Z M446.993304,363.062667 L450.930791,367.001333 L456.162996,361.772 L455.877651,361.494667 C454.733606,360.389333 453.608229,359.265333 452.504186,358.122667 L452.226842,357.837333 L446.993304,363.062667 Z M438.500972,371.546667 L438.784983,371.824 C439.659684,372.682667 440.522384,373.558667 441.382418,374.433333 L442.427792,375.493333 L445.710587,372.216 L441.771766,368.277333 L438.500972,371.546667 Z M435.22351,374.852 L439.14633,378.770667 L441.131741,376.788 L437.199587,372.858667 L435.22351,374.852 Z M442.822474,362.04 C442.241118,362.628 441.653095,363.206667 441.062405,363.785333 L440.461048,364.376 L454.854944,378.770667 L457.484381,376.142667 L443.099818,361.758667 L442.822474,362.04 Z M439.163664,381 C439.032992,381 438.900987,380.972 438.783649,380.918667 C438.707646,380.882667 438.632977,380.832 438.53964,380.753333 L438.400968,380.622667 C437.243589,379.530667 436.107545,378.369333 435.008835,377.249333 C434.430146,376.657333 433.851457,376.068 433.267434,375.482667 C433.195431,375.405333 433.138095,375.326667 433.09676,375.249333 C432.976756,375.010667 432.967422,374.72 433.074093,374.472 C433.108761,374.392 433.15943,374.312 433.235432,374.22 C434.924832,372.425333 436.736903,370.652 438.488971,368.936 L440.478382,366.982667 L438.780983,365.288 L438.63031,365.28 C437.920949,365.244 437.306258,365.142667 436.752903,364.966667 C436.311553,364.826667 435.906204,364.638667 435.547523,364.412 C435.286179,364.248 435.044837,364.057333 434.823495,363.844 C434.662155,363.693333 434.518149,363.530667 434.384811,363.36 C433.663449,362.442667 433.238099,361.198667 433.08476,359.56 C433.063426,359.333333 433.047425,359.106667 433.036758,358.878667 C433.022091,358.588 433.015424,358.3 433.012757,358.010667 L433.018091,353.913333 C433.020757,353.801333 433.036758,353.704 433.068759,353.614667 C433.152763,353.374667 433.34077,353.170667 433.574112,353.072 C433.644782,353.041333 433.727452,353.02 433.826122,353.005333 C433.859457,353.001333 433.904792,353 433.950127,353 C434.151468,353.012 434.311475,353.064 434.44748,353.157333 C434.518149,353.204 434.579485,353.262667 434.640821,353.321333 L434.770159,353.437333 C434.839495,353.496 434.903498,353.545333 434.9715,353.594667 C435.154174,353.724 435.338181,353.830667 435.534189,353.918667 C436.255551,354.244 437.060915,354.297333 437.823612,354.305333 L439.132996,354.298667 L439.507678,354.305333 C440.082367,354.325333 440.74906,354.378667 441.374417,354.609333 C441.650428,354.710667 441.905105,354.841333 442.13578,355 C442.291787,355.108 442.437126,355.228 442.571798,355.358667 C443.23049,356.004 443.650506,356.944 443.853181,358.234667 C443.881182,358.401333 443.901183,358.566667 443.91985,358.732 C443.945185,358.973333 443.965185,359.213333 443.977186,359.452 C443.986519,359.606667 443.999853,360.070667 443.999853,360.070667 L445.682586,361.753333 L445.958597,361.468 C447.07464,360.324 448.216018,359.205333 449.357396,358.086667 C450.104092,357.354667 450.852121,356.621333 451.593484,355.881333 C451.668153,355.810667 451.732156,355.765333 451.809492,355.724 L451.936164,355.666667 C454.528265,354.732 457.185702,353.848 459.848473,353.029333 C459.895141,353.018667 459.959144,353.006667 460.02448,353 C460.268489,353.010667 460.381827,353.04 460.480498,353.088 C460.764509,353.225333 460.960516,353.502667 460.995184,353.813333 C461.007185,353.924 460.996518,354.042667 460.96585,354.169333 C460.160485,356.790667 459.276451,359.444 458.341747,362.041333 C458.300412,362.148 458.277745,362.190667 458.252411,362.230667 C458.219076,362.285333 458.188408,362.329333 458.15374,362.370667 C456.69635,363.910667 455.196291,365.38 453.746901,366.8 L452.224175,368.296 L459.42579,375.496 C459.495126,375.572 459.548461,375.641333 459.587129,375.713333 C459.716468,375.96 459.727135,376.254667 459.616464,376.510667 C459.576462,376.604 459.511126,376.697333 459.415123,376.801333 L455.50297,380.713333 C455.422967,380.786667 455.354964,380.837333 455.284295,380.873333 C455.152289,380.942667 455.00295,380.98 454.852278,380.98 C454.725606,380.98 454.601601,380.953333 454.488263,380.905333 C454.393593,380.864 454.300256,380.798667 454.197585,380.702667 L447.022638,373.528 L446.745294,373.812 C445.36124,375.245333 443.939851,376.637333 442.517129,378.029333 L442.237118,378.301333 C441.795767,378.752 441.35575,379.190667 440.914399,379.628 L439.814356,380.729333 C439.731686,380.809333 439.64235,380.872 439.547679,380.917333 C439.431675,380.970667 439.298336,381 439.163664,381 L439.163664,381 Z" id="arts-icon"></path>
            </g>
        </g>
    </g>
</svg>