<?xml version="1.0" encoding="UTF-8"?>
<svg width="24px" height="33px" viewBox="0 0 24 33" version="1.1" xmlns="http://www.w3.org/2000/svg" xmlns:xlink="http://www.w3.org/1999/xlink">
    <!-- Generator: Sketch 60.1 (88133) - https://sketch.com -->
    <title>conservation-icon</title>
    <desc>Created with Sketch.</desc>
    <g id="Page-1" stroke="none" stroke-width="1" fill="none" fill-rule="evenodd">
        <g id="UpEffect---Crowdfund-(Desktop)---V4" transform="translate(-388.000000, -2552.000000)" fill="#66C3B8">
            <g id="Group-30" transform="translate(337.000000, 2406.000000)">
                <path d="M63.9576654,176.678144 L63.9576654,172.774784 L70.7872708,166.56896 C71.1789383,166.213376 71.2077374,165.607808 70.8521647,165.216128 C70.4962081,164.824832 69.8910435,164.796032 69.499376,165.151232 L63.9576654,170.186624 L63.9576654,163.751552 L68.2464241,159.85472 C68.6377076,159.499136 68.6668907,158.893568 68.311318,158.501888 C67.9553614,158.110976 67.3501968,158.082176 66.9581453,158.436992 L63.9576654,161.163392 L63.9576654,151.890944 C63.9576654,151.361792 63.5291351,150.933248 63,150.933248 C62.4708649,150.933248 62.0423346,151.361792 62.0423346,151.890944 L62.0423346,161.163776 L59.0414707,158.437376 C58.6498032,158.082176 58.0438706,158.11136 57.688682,158.502272 C57.3331093,158.893568 57.3622924,159.49952 57.7535759,159.855104 L62.0423346,163.751552 L62.0423346,170.187008 L56.500624,165.151232 C56.1089565,164.796032 55.5041759,164.824832 55.1478353,165.216128 C54.7922626,165.607808 54.8210617,166.213376 55.2127292,166.56896 L62.0427186,172.774784 L62.0427186,176.678528 C56.9291543,176.194304 52.9149467,171.877376 52.9149467,166.639232 C52.9149467,157.918592 60.7555918,150.434816 63,148.471808 C65.2444082,150.434816 73.0850533,157.918976 73.0850533,166.639232 C73.0850533,171.877376 69.0704617,176.194304 63.9576654,176.678144 M63.5921091,146.466176 L63,146 L62.4078909,146.466176 C61.9417299,146.83328 51,155.576192 51,166.639232 C51,173.256704 56.3831237,178.64 63,178.64 C69.6168763,178.64 75,173.256704 75,166.639232 C75,155.576192 64.0582701,146.83328 63.5921091,146.466176" id="conservation-icon"></path>
            </g>
        </g>
    </g>
</svg>