<?xml version="1.0" encoding="UTF-8"?>
<svg width="31px" height="28px" viewBox="0 0 31 28" version="1.1" xmlns="http://www.w3.org/2000/svg" xmlns:xlink="http://www.w3.org/1999/xlink">
    <!-- Generator: Sketch 60.1 (88133) - https://sketch.com -->
    <title>cosmetics-icon</title>
    <desc>Created with Sketch.</desc>
    <g id="Page-1" stroke="none" stroke-width="1" fill="none" fill-rule="evenodd">
        <g id="UpEffect---Crowdfund-(Desktop)---V4" transform="translate(-769.000000, -2622.000000)" fill="#66C3B8">
            <g id="Group-30" transform="translate(337.000000, 2406.000000)">
                <g id="cosmetics-icon" transform="translate(432.000000, 216.000000)">
                    <path d="M11.7113333,20.7528094 L4.01133333,20.7528094 C3.81133333,20.7528094 3.64466667,20.5881035 3.61133333,20.3904565 L3.31133333,17.1625506 L12.7446667,14.1645741 L12.1446667,20.3904565 C12.1113333,20.5881035 11.9446667,20.7528094 11.7113333,20.7528094 L11.7113333,20.7528094 Z M9.31133333,26.1225506 L6.41133333,26.1225506 C6.01133333,26.1225506 5.678,25.7931388 5.678,25.3978447 L5.678,22.6304565 L10.0446667,22.6304565 L10.0446667,25.3978447 C10.0113333,25.8257506 9.71133333,26.1225506 9.31133333,26.1225506 L9.31133333,26.1225506 Z M2.01133333,2.20692706 C2.04466667,2.17431529 2.14466667,2.07516235 2.31133333,2.07516235 L13.4446667,2.07516235 C13.6113333,2.07516235 13.7113333,2.14104471 13.7446667,2.20692706 C13.778,2.23986824 13.878,2.37163294 13.8446667,2.50372706 L13.6446667,4.57869176 L2.44466667,8.13633882 L1.91133333,2.50372706 C1.878,2.33902118 1.94466667,2.23986824 2.01133333,2.20692706 L2.01133333,2.20692706 Z M12.9113333,12.08928 L3.11133333,15.2186918 L2.61133333,10.0801976 L13.4113333,6.65398588 L12.9113333,12.08928 Z M13.4113333,0.164574118 L2.31133333,0.164574118 C1.64466667,0.164574118 1.04466667,0.428103529 0.611333333,0.922221176 C0.178,1.41633882 -0.0553333333,2.04222118 0.0113333333,2.66843294 L1.71133333,20.5551624 C1.81133333,21.6422212 2.678,22.4990212 3.778,22.5978447 L3.778,25.3978447 C3.778,26.8469271 4.978,27.9998682 6.41133333,27.9998682 L9.31133333,27.9998682 C10.778,27.9998682 11.9446667,26.8139859 11.9446667,25.3978447 L11.9446667,22.5978447 C13.0446667,22.4990212 13.9446667,21.6422212 14.0446667,20.5551624 L15.7446667,2.66843294 C15.8113333,2.04222118 15.578,1.38339765 15.1446667,0.922221176 C14.7113333,0.428103529 14.078,0.164574118 13.4113333,0.164574118 L13.4113333,0.164574118 Z" id="Fill-1"></path>
                    <path d="M29.0837426,25.4565217 C29.0837426,25.8478261 28.7533535,26.173913 28.3568864,26.173913 L18.6104051,26.173913 C18.213938,26.173913 17.8835488,25.8478261 17.8835488,25.4565217 L17.8835488,14.8913043 C17.8835488,14.5 18.213938,14.173913 18.6104051,14.173913 L28.3895949,14.173913 C28.7863924,14.173913 29.1167816,14.5 29.1167816,14.8913043 L29.1167816,25.4565217 L29.0837426,25.4565217 Z M21.3195965,9.57608696 C21.3195965,9.18478261 21.6499857,8.85869565 22.0464527,8.85869565 L24.9205084,8.85869565 C25.3173058,8.85869565 25.647695,9.18478261 25.647695,9.57608696 L25.647695,12.3152174 L21.3195965,12.3152174 L21.3195965,9.57608696 Z M28.3895949,12.3152174 L27.5636219,12.3152174 L27.5636219,9.57608696 C27.5636219,8.14130435 26.3745512,7 24.9538777,7 L22.0794916,7 C20.6254488,7 19.4690866,8.17391304 19.4690866,9.57608696 L19.4690866,12.3152174 L18.6104051,12.3152174 C17.1563622,12.3152174 16,13.4891304 16,14.8913043 L16,25.423913 C16,26.8586957 17.1897315,28 18.6104051,28 L28.3895949,28 C29.8436378,28 31,26.826087 31,25.423913 L31,14.8913043 C31,13.4891304 29.8105989,12.3152174 28.3895949,12.3152174 L28.3895949,12.3152174 Z" id="Fill-4"></path>
                    <path d="M22.9998404,22.0983607 C22.3615086,22.0983607 21.8508431,21.5737705 21.8508431,20.8852459 C21.8508431,20.6229508 22.170009,19.8032787 22.9998404,18.4262295 C23.829991,19.8032787 24.1491569,20.6557377 24.1491569,20.8852459 C24.1491569,21.5737705 23.6381722,22.0983607 22.9998404,22.0983607 M22.9998404,16 L22.9998404,16 C22.5849247,16 22.2341614,16.1967213 22.0104261,16.557377 C20.6699293,18.557377 20,20.0327869 20,20.9180328 C20,22.6229508 21.3401777,24 22.9998404,24 C24.6595032,24 26,22.6229508 26,20.9180328 C26,20.0327869 25.3297516,18.5901639 23.9895739,16.557377 C23.7658386,16.2295082 23.3828395,16 22.9998404,16" id="Fill-6"></path>
                </g>
            </g>
        </g>
    </g>
</svg>