<?xml version="1.0" encoding="UTF-8"?>
<svg width="35px" height="21px" viewBox="0 0 35 21" version="1.1" xmlns="http://www.w3.org/2000/svg" xmlns:xlink="http://www.w3.org/1999/xlink">
    <!-- Generator: Sketch 60.1 (88133) - https://sketch.com -->
    <title>education-and-training-icon</title>
    <desc>Created with Sketch.</desc>
    <g id="Page-1" stroke="none" stroke-width="1" fill="none" fill-rule="evenodd">
        <g id="UpEffect---Crowdfund-(Desktop)---V4" transform="translate(-382.000000, -2692.000000)" fill="#66C3B8">
            <g id="Group-30" transform="translate(337.000000, 2406.000000)">
                <path d="M48.4423077,293.432473 L62.5,298.949364 L76.5580769,293.432473 L62.5,287.903364 L48.4423077,293.432473 Z M53.0803846,302.343727 C53.1388462,302.432309 53.2507692,302.600691 53.5,302.807255 C53.9515385,303.180291 54.6761538,303.582345 55.4880769,303.909564 C57.4611538,304.704509 60.0165385,305.159636 62.5,305.159636 C64.9834615,305.159636 67.5396154,304.704509 69.5123077,303.909564 C70.3238462,303.582345 71.0488462,303.180673 71.5,302.807255 C71.7330769,302.614055 71.8492308,302.454836 71.9034615,302.378091 L71.9807692,302.336855 L71.9807692,297.202164 L62.8365385,300.799655 C62.7323077,300.840509 62.6161538,300.861891 62.5,300.861891 C62.3842308,300.861891 62.2676923,300.840509 62.1626923,300.799655 L53.0192308,297.202164 L53.0192308,302.247127 L53.4819231,302.247127 C53.4780769,302.321964 53.3842308,302.427727 53.2561538,302.427727 L53.0803846,302.343727 Z M62.5,307 C59.7403846,307 56.9996154,306.508218 54.7826923,305.615527 C53.7476923,305.1982 52.9403846,304.743836 52.3146154,304.226473 C51.7484615,303.7576 51.1696154,303.155855 51.1696154,302.247127 L51.1696154,296.473655 L45.5915385,294.284309 C45.2484615,294.151818 45,293.791 45,293.426364 C45,293.061727 45.2484615,292.700527 45.5903846,292.5688 L62.1634615,286.052691 C62.2580769,286.018327 62.3692308,286 62.4876923,286 C62.6530769,286 62.7842308,286.035509 62.8476923,286.056891 L79.4084615,292.568418 C79.7519231,292.700527 80,293.061345 80,293.426364 C80,293.791 79.7519231,294.151818 79.41,294.283927 L78.0703846,294.808545 L78.0703846,299.318582 L78.1603846,299.387309 C78.5926923,299.716818 78.8411538,300.200582 78.8411538,300.714127 C78.8411538,301.6282 78.0642308,302.401 77.145,302.401 C76.2261538,302.401 75.4492308,301.6282 75.4492308,300.714127 C75.4492308,300.200582 75.6973077,299.716818 76.1296154,299.387309 L76.22,299.318582 L76.22,295.537818 L73.8307692,296.473273 L73.8307692,302.247127 C73.8307692,303.155855 73.2519231,303.7576 72.6857692,304.226473 C72.0596154,304.743836 71.2523077,305.198582 70.2173077,305.615527 C68.0007692,306.508218 65.26,307 62.5,307 L62.5,307 Z" id="education-and-training-icon"></path>
            </g>
        </g>
    </g>
</svg>