<?xml version="1.0" encoding="UTF-8"?>
<svg width="29px" height="30px" viewBox="0 0 29 30" version="1.1" xmlns="http://www.w3.org/2000/svg" xmlns:xlink="http://www.w3.org/1999/xlink">
    <!-- Generator: Sketch 60.1 (88133) - https://sketch.com -->
    <title>food-and-beverages</title>
    <desc>Created with Sketch.</desc>
    <g id="Page-1" stroke="none" stroke-width="1" fill="none" fill-rule="evenodd">
        <g id="UpEffect---Crowdfund-(Desktop)---V4" transform="translate(-770.000000, -2554.000000)" fill="#66C3B8">
            <g id="Group-30" transform="translate(337.000000, 2406.000000)">
                <path d="M441.67075,158.99628 C442.188084,158.99503 442.606908,158.573781 442.605656,158.055032 C442.605339,157.859094 442.543849,157.66847 442.429653,157.509407 L437.347606,150.222232 C437.050822,149.79692 436.46635,149.69317 436.042193,149.990669 C435.617722,150.287856 435.514192,150.873793 435.810977,151.299105 L440.902435,158.586281 C441.077808,158.83753 441.364553,158.987218 441.67075,158.986905 L441.67075,158.99628 Z M445.971932,160.248466 C446.536953,158.905655 446.366599,157.365345 445.522049,156.179097 L439.949649,148.384734 C439.643453,147.96661 439.056785,147.87661 438.639843,148.183485 C438.229804,148.485047 438.134745,149.059108 438.425255,149.477233 L443.99138,157.277533 C444.463224,157.939719 444.553577,158.80128 444.228871,159.547217 C443.96691,160.125341 444.042831,160.800652 444.425891,161.306276 L454.73367,174.666255 C455.032023,175.057505 454.95767,175.617504 454.567082,175.916878 C454.176807,176.21594 453.618061,176.141565 453.31908,175.750004 C453.308099,175.735629 453.297433,175.720629 453.287393,175.705316 L443.947773,161.650651 C443.591694,161.125027 442.976163,160.83784 442.34526,160.902527 C441.533965,160.980652 440.742121,160.623778 440.26212,159.963466 L434.692544,152.162853 C434.386347,151.744729 433.799994,151.654729 433.382738,151.961604 C432.972698,152.263166 432.877639,152.837227 433.168149,153.255352 L438.744,161.055964 C439.595453,162.23815 440.997494,162.893149 442.448476,162.786899 L451.728803,176.763439 C452.142294,177.391251 452.794844,177.82125 453.534296,177.953125 C453.700884,177.98375 453.870296,177.999688 454.040022,178 C455.566612,177.999375 456.803947,176.758439 456.80332,175.228442 C456.803006,174.615943 456.600026,174.020944 456.226692,173.536257 L445.971932,160.248466 Z M459.472186,148.732234 C458.222616,147.833798 456.523476,147.758798 454.714846,148.525672 C452.909667,149.352233 451.362371,150.655043 450.238605,152.294416 C448.611622,154.582537 447.852405,157.215033 448.208171,159.33753 C448.274994,159.757529 448.237661,160.187528 448.099308,160.589715 C447.941817,161.083777 448.214131,161.611901 448.706995,161.769713 C449.186996,161.92315 449.702134,161.668463 449.873428,161.193777 C450.112173,160.496903 450.175546,159.751591 450.057585,159.024405 C449.785898,157.406283 450.441899,155.246286 451.766136,153.390039 C452.690373,152.030979 453.965355,150.949105 455.45524,150.259731 C456.142299,149.968482 457.438615,149.583483 458.394538,150.259731 C459.350147,150.93598 459.409441,152.297541 459.359559,153.04254 C459.19297,154.680037 458.585283,156.241597 457.601125,157.559407 C456.276574,159.437529 454.449434,160.74909 452.834373,161.018464 C452.118451,161.136589 451.442058,161.427839 450.863547,161.866588 C450.707939,161.985963 450.55986,162.114713 450.419938,162.251587 C450.061977,162.626274 450.07484,163.220648 450.448488,163.579398 C450.804566,163.921585 451.364567,163.928147 451.728803,163.594398 C451.81445,163.510648 451.905117,163.432211 452.00049,163.359711 C452.330843,163.105024 452.717667,162.934399 453.128021,162.862211 C455.236573,162.508462 457.488497,160.930652 459.116108,158.639406 C460.300737,157.036596 461.02764,155.140661 461.218071,153.155352 C461.349209,151.192542 460.728031,149.61817 459.472186,148.719734 L459.472186,148.732234 Z M446.412403,171.583135 L443.088791,176.65094 C442.648947,177.316564 441.961887,177.778438 441.180396,177.934063 C440.995298,177.97125 440.807062,177.990313 440.618199,177.990641 C440.061336,177.9925 439.516707,177.825313 439.056472,177.511876 C437.753254,176.627815 437.41192,174.85313 438.29349,173.547195 C438.325804,173.500007 438.359059,173.453132 438.394196,173.40782 L442.970203,167.460329 C443.291144,167.047205 443.885341,166.97283 444.297891,167.294392 C444.710127,167.615954 444.784166,168.211891 444.463224,168.624702 L439.887218,174.572193 C439.560943,175.001255 439.643453,175.614066 440.071375,175.940941 C440.086747,175.952503 440.102434,175.963753 440.118434,175.974691 C440.325493,176.11094 440.578356,176.159065 440.82118,176.109065 C441.108553,176.051566 441.361416,175.881253 441.523926,175.636879 L444.847225,170.550012 C445.101029,170.097825 445.672324,169.9372 446.123462,170.191575 C446.5746,170.445324 446.734914,171.017824 446.481109,171.470323 C446.459776,171.508448 446.435619,171.54501 446.409266,171.579698 L446.412403,171.583135 Z" id="food-and-beverages"></path>
            </g>
        </g>
    </g>
</svg>