<?xml version="1.0" encoding="UTF-8"?>
<svg width="30px" height="23px" viewBox="0 0 30 23" version="1.1" xmlns="http://www.w3.org/2000/svg" xmlns:xlink="http://www.w3.org/1999/xlink">
    <!-- Generator: Sketch 60.1 (88133) - https://sketch.com -->
    <title>job-icon</title>
    <desc>Created with Sketch.</desc>
    <g id="Page-1" stroke="none" stroke-width="1" fill="none" fill-rule="evenodd">
        <g id="UpEffect---Crowdfund-(Desktop)---V4" transform="translate(-384.000000, -2493.000000)" fill="#66C3B8">
            <g id="Group-30" transform="translate(337.000000, 2406.000000)">
                <g id="job-icon" transform="translate(47.000000, 87.000000)">
                    <path d="M27,20.2597403 L3,20.2597403 C2.448,20.2587273 2,19.8059221 2,19.2467532 L2,9.53625974 L7.293,14.898 C7.48,15.0874286 7.735,15.1948052 8,15.1948052 L22,15.1948052 C22.266,15.1948052 22.52,15.0874286 22.707,14.898 L28,9.53625974 L28,19.2467532 C27.999,19.8059221 27.552,20.2587273 27,20.2597403 L27,20.2597403 Z M3,6.07792208 L27,6.07792208 C27.417,6.07893506 27.788,6.34433766 27.931,6.74142857 L21.586,13.1688312 L8.414,13.1688312 L2.07,6.74142857 C2.212,6.34433766 2.583,6.07893506 3,6.07792208 L3,6.07792208 Z M11,3.03896104 C11,2.47979221 11.448,2.02597403 12,2.02597403 L18,2.02597403 C18.552,2.02597403 18.999,2.47979221 19,3.03896104 L19,4.05194805 L11,4.05194805 L11,3.03896104 Z M27,4.05194805 L21,4.05194805 L21,3.03896104 C20.998,1.36145455 19.656,0.00101298701 18,3.55271368e-15 L12,3.55271368e-15 C10.344,0.00101298701 9.002,1.36145455 9,3.03896104 L9,4.05194805 L3,4.05194805 C1.344,4.05296104 0.002,5.4134026 0,7.09090909 L0,19.2467532 C0.002,20.9232468 1.344,22.2836883 3,22.2857143 L27,22.2857143 C28.656,22.2836883 29.998,20.9232468 30,19.2467532 L30,7.09090909 C29.998,5.4134026 28.656,4.05296104 27,4.05194805 L27,4.05194805 Z" id="Fill-1"></path>
                    <path d="M15.4285714,9.42816623 C15.9017143,9.42816623 16.2857143,9.81216623 16.2857143,10.2853091 C16.2857143,10.7584519 15.9017143,11.1424519 15.4285714,11.1424519 C14.9554286,11.1424519 14.5714286,10.7584519 14.5714286,10.2853091 C14.5714286,9.81216623 14.9554286,9.42816623 15.4285714,9.42816623" id="Fill-4"></path>
                </g>
            </g>
        </g>
    </g>
</svg>