<?xml version="1.0" encoding="UTF-8"?>
<svg width="13px" height="17px" viewBox="0 0 13 17" version="1.1" xmlns="http://www.w3.org/2000/svg" xmlns:xlink="http://www.w3.org/1999/xlink">
    <!-- Generator: Sketch 53.1 (72631) - https://sketchapp.com -->
    <title>Map Pin Icon</title>
    <desc>Created with Sketch.</desc>
    <g id="Page-1" stroke="none" stroke-width="1" fill="none" fill-rule="evenodd">
        <g id="UpEffect---Homepage-(Desktop)---V3" transform="translate(-142.000000, -2586.000000)" fill="#000000">
            <g id="Campaigns" transform="translate(0.000000, 2269.000000)">
                <path d="M148.476893,321.274138 C149.984948,321.274138 151.357765,322.645009 151.356792,324.153064 C151.357765,325.662092 149.984948,327.033936 148.476893,327.033936 C146.968838,327.033936 145.596022,325.662092 145.596995,324.153064 C145.596022,322.645009 146.968838,321.274138 148.476893,321.274138 M148.476893,317.677144 C144.904378,317.677144 142,320.581522 142,324.152597 C142,326.609151 143.592584,328.947629 145.14485,330.692848 C146.697116,332.438067 148.249381,333.601546 148.249381,333.601546 C148.384737,333.702343 148.56905,333.702343 148.704405,333.601546 C148.704405,333.601546 150.256671,332.438067 151.808937,330.692848 C153.362642,328.947629 154.953787,326.609151 154.953787,324.152597 C154.953787,320.581522 152.047968,317.677144 148.476893,317.677144" id="Map-Pin-Icon"></path>
            </g>
        </g>
    </g>
</svg>  