<?xml version="1.0" encoding="UTF-8"?>
<svg width="28px" height="28px" viewBox="0 0 28 28" version="1.1" xmlns="http://www.w3.org/2000/svg" xmlns:xlink="http://www.w3.org/1999/xlink">
    <!-- Generator: Sketch 60.1 (88133) - https://sketch.com -->
    <title>medical-icon</title>
    <desc>Created with Sketch.</desc>
    <g id="Page-1" stroke="none" stroke-width="1" fill="none" fill-rule="evenodd">
        <g id="UpEffect---Crowdfund-(Desktop)---V4" transform="translate(-386.000000, -2754.000000)" fill="#66C3B8">
            <g id="Group-30" transform="translate(337.000000, 2406.000000)">
                <path d="M59.7006186,348 L53.9259794,353.774342 L49,353.774342 L49,376 L77,376 L77,353.774342 L72.0725773,353.774342 L66.2993814,348 L59.7006186,348 Z M60.6157145,350 L65.3828949,350 L69,354 L57,354 L60.6157145,350 Z M51,374 L75,374 L75,356 L51,356 L51,374 Z M61.962963,361 L61.962963,363.963896 L59,363.963896 L59,366.037586 L61.962963,366.037586 L61.962963,369 L64.037037,369 L64.037037,366.037586 L67,366.037586 L67,363.963896 L64.037037,363.963896 L64.037037,361 L61.962963,361 Z" id="medical-icon"></path>
            </g>
        </g>
    </g>
</svg>