<?xml version="1.0" encoding="UTF-8"?>
<svg width="33px" height="32px" viewBox="0 0 33 32" version="1.1" xmlns="http://www.w3.org/2000/svg" xmlns:xlink="http://www.w3.org/1999/xlink">
    <!-- Generator: Sketch 60.1 (88133) - https://sketch.com -->
    <title>slow-fashion-icon</title>
    <desc>Created with Sketch.</desc>
    <g id="Page-1" stroke="none" stroke-width="1" fill="none" fill-rule="evenodd">
        <g id="UpEffect---Crowdfund-(Desktop)---V4" transform="translate(-768.000000, -2487.000000)" fill="#66C3B8">
            <g id="Group-30" transform="translate(337.000000, 2406.000000)">
                <path d="M457.920669,99.0759652 L455.732488,97.3196607 C455.453359,97.0954658 455.069809,97.0508929 454.746167,97.2042369 C454.422859,97.3582462 454.216692,97.6828964 454.216692,98.0394794 L454.216692,111.149228 L440.724473,111.149228 L440.724473,98.0391468 C440.724473,97.6825638 440.518306,97.3575809 440.194664,97.2039043 C439.871022,97.049895 439.487137,97.0951332 439.208008,97.3193281 L437.020497,99.0756325 L433.284056,95.0950084 L440.130739,89.4266024 L442.60173,89.4266024 L446.773263,94.1077524 C446.948974,94.3050041 447.200993,94.418432 447.466064,94.4197626 C447.737161,94.4373922 447.984159,94.3099936 448.161543,94.1144051 L452.420095,89.4266024 L454.810092,89.4266024 L461.657779,95.0950084 L457.920669,99.0759652 Z M447.470415,88.9452818 L449.573251,89.7984865 L447.476774,92.1059645 L445.406403,89.7828527 L447.470415,88.9452818 Z M463.606324,94.2996819 L455.743198,87.7900459 C455.575855,87.6516704 455.365337,87.5754974 455.147456,87.5754974 L452.006088,87.5754974 C451.743024,87.5754974 451.491674,87.6862643 451.315629,87.8808549 L450.900283,88.3375605 L448.402852,87.3243592 L448.402852,86.0949461 C449.404569,85.7197356 450.11879,84.7570944 450.11879,83.631463 C450.11879,82.180516 448.931322,81 447.471419,81 C446.011517,81 444.823045,82.180516 444.823045,83.631463 C444.823045,84.1427205 445.239729,84.5568491 445.754143,84.5568491 C446.268891,84.5568491 446.685241,84.1423879 446.685241,83.631463 C446.685241,83.2010353 447.038,82.851105 447.471419,82.851105 C447.904169,82.851105 448.256594,83.2010353 448.256594,83.631463 C448.256594,84.0618906 447.904169,84.4124862 447.471419,84.4124862 C446.957006,84.4124862 446.540656,84.8266148 446.540656,85.3378724 L446.540656,87.3240265 L444.098783,88.3149415 L443.718244,87.8878402 C443.54153,87.6895907 443.287837,87.57583 443.021092,87.57583 L439.794044,87.57583 C439.576498,87.57583 439.365646,87.6520031 439.198637,87.7903786 L431.335176,94.2996819 C431.138715,94.4623397 431.017893,94.698842 431.001828,94.9526413 C430.985763,95.2064406 431.076129,95.4559157 431.250501,95.6418578 L436.251052,100.967984 C436.5844,101.323237 437.136968,101.362155 437.516837,101.056797 L438.862612,99.9767365 L438.862612,112.074614 C438.862612,112.585871 439.279296,113 439.79371,113 L455.147456,113 C455.661869,113 456.078554,112.585871 456.078554,112.074614 L456.078554,99.9764038 L457.425333,101.05713 C457.805202,101.361822 458.357769,101.323569 458.691117,100.967984 L463.691,95.6418578 C463.865706,95.4559157 463.955402,95.2064406 463.939337,94.9526413 C463.923942,94.6985094 463.80312,94.4623397 463.606324,94.2996819 L463.606324,94.2996819 Z" id="slow-fashion-icon"></path>
            </g>
        </g>
    </g>
</svg>