<?xml version="1.0" encoding="UTF-8"?>
<svg width="32px" height="32px" viewBox="0 0 32 32" version="1.1" xmlns="http://www.w3.org/2000/svg" xmlns:xlink="http://www.w3.org/1999/xlink">
    <!-- Generator: Sketch 60.1 (88133) - https://sketch.com -->
    <title>technology-icon</title>
    <desc>Created with Sketch.</desc>
    <g id="Page-1" stroke="none" stroke-width="1" fill="none" fill-rule="evenodd">
        <g id="UpEffect---Crowdfund-(Desktop)---V4" transform="translate(-768.000000, -2687.000000)" fill="#66C3B8">
            <g id="Group-30" transform="translate(337.000000, 2406.000000)">
                <path d="M444.737759,299.362513 L449.466303,299.362513 L449.466303,294.633971 L444.737759,294.633971 L444.737759,299.362513 Z M450.476965,301.473758 C450.463955,301.473758 450.450944,301.473462 450.437967,301.472969 L450.431987,301.472772 L443.682646,301.472772 C443.110719,301.472772 442.627532,300.989585 442.627532,300.417659 L442.627532,293.578858 C442.627532,293.006899 443.110719,292.523713 443.682646,292.523713 L450.521449,292.523713 C451.093376,292.523713 451.576563,293.006899 451.576563,293.578858 L451.576563,300.425248 L451.576924,300.432838 C451.588259,300.67839 451.489401,300.923713 451.298616,301.123565 C451.089828,301.342209 450.799363,301.472772 450.521482,301.472772 L450.513926,301.472772 L450.506337,301.473133 C450.496513,301.473593 450.486723,301.473758 450.476965,301.473758 L450.476965,301.473758 Z M439.315629,288.133536 C439.247424,288.133536 439.157272,288.134094 439.064787,288.138168 L439.0342,288.139515 L439.004434,288.14648 C438.947892,288.159688 438.889017,288.175786 438.829419,288.194283 L438.798832,288.203778 L438.770676,288.219023 C438.718668,288.247113 438.666068,288.27816 438.614323,288.311277 L438.588959,288.327507 L438.56698,288.348041 C438.529625,288.382998 438.492729,288.419696 438.45728,288.45715 L438.435267,288.480476 L438.41815,288.507581 C438.38454,288.560805 438.352902,288.615211 438.324089,288.669224 L438.309271,288.696986 L438.300007,288.727047 C438.28036,288.790752 438.26436,288.849823 438.251119,288.907614 L438.244121,288.938168 L438.243037,288.969446 C438.241986,288.99885 438.24146,289.028287 438.24146,289.057725 C438.239128,289.474645 438.239908,289.897971 438.240672,290.307335 C438.241066,290.51471 438.24146,290.721922 438.24146,290.929133 L438.24146,304.582489 C438.24146,304.61738 438.241296,304.652271 438.241132,304.687162 C438.240573,304.80363 438.239908,304.92414 438.245403,305.045963 L438.24675,305.076485 L438.253715,305.106218 C438.266889,305.162694 438.282988,305.221602 438.301518,305.281265 L438.311013,305.311852 L438.326257,305.340041 C438.354315,305.391984 438.385362,305.444583 438.418545,305.496394 L438.434742,305.521725 L438.455276,305.543671 C438.490002,305.580797 438.526635,305.617659 438.564253,305.653273 L438.58758,305.675384 L438.61475,305.692501 C438.66758,305.725881 438.721953,305.75752 438.77636,305.786563 L438.804187,305.801446 L438.834348,305.81071 C438.898348,305.83039 438.95742,305.84639 439.01498,305.859565 L439.045403,305.86653 L439.076648,305.867647 C439.106019,305.868665 439.135489,305.869224 439.16496,305.869224 C439.3725,305.870374 439.581354,305.870768 439.790044,305.870768 C439.998439,305.870768 440.20657,305.870374 440.41457,305.869979 C440.621913,305.869618 440.829158,305.869224 441.036369,305.869224 L454.689764,305.869224 C454.724753,305.869224 454.759743,305.869388 454.794733,305.869552 C454.830708,305.869717 454.866651,305.869914 454.90256,305.869914 C454.9707,305.869914 455.060819,305.869355 455.153238,305.865281 L455.183792,305.863934 L455.213558,305.856969 C455.270199,305.843729 455.329074,305.82763 455.388507,305.809166 L455.419193,305.799639 L455.447448,305.784361 C455.49939,305.756271 455.551891,305.725257 455.603505,305.692238 L455.628967,305.675975 L455.651045,305.65531 C455.688269,305.620485 455.725099,305.583852 455.760516,305.546431 L455.782692,305.523039 L455.799875,305.495803 C455.833518,305.442448 455.865156,305.388074 455.893871,305.33416 L455.908622,305.306497 L455.917854,305.2766 C455.937501,305.212961 455.953567,305.153593 455.967004,305.095047 L455.974101,305.064066 L455.975152,305.032296 C455.975941,305.007031 455.976499,304.9817 455.976499,304.956074 L455.976466,304.926669 C455.969567,304.494275 455.9719,304.052912 455.974167,303.62607 C455.975316,303.407524 455.976499,303.18901 455.976499,302.97053 L455.976499,300.832115 L455.976138,300.824559 C455.975251,300.804977 455.975284,300.783294 455.976269,300.756287 L455.976499,300.750275 L455.976499,293.152739 L455.976138,293.145183 C455.975251,293.125634 455.975284,293.103951 455.976269,293.076912 L455.976499,293.070932 L455.976499,289.410579 C455.976499,289.376148 455.976663,289.341717 455.976795,289.307318 C455.977353,289.19407 455.977912,289.076945 455.972721,288.958472 L455.971407,288.927918 L455.964442,288.898119 C455.951037,288.840559 455.935333,288.782998 455.916376,288.722086 L455.906881,288.691598 L455.891735,288.66354 C455.863678,288.611598 455.832631,288.558932 455.799415,288.507055 L455.783185,288.481692 L455.762585,288.45968 C455.72753,288.422226 455.690832,288.385331 455.653542,288.350045 L455.630249,288.328 L455.603111,288.310883 C455.550084,288.277437 455.495743,288.245799 455.441567,288.216887 L455.413739,288.202004 L455.383612,288.192739 C455.319875,288.173125 455.260803,288.157125 455.203111,288.143885 L455.172655,288.13692 L455.141476,288.135803 C455.112006,288.134752 455.08247,288.134193 455.052967,288.134193 C454.84546,288.133043 454.636573,288.132682 454.427882,288.132682 C454.219488,288.132682 454.011357,288.133043 453.803324,288.133437 C453.595981,288.133832 453.388736,288.134193 453.181525,288.134193 L439.528196,288.134193 C439.493239,288.134193 439.458282,288.134062 439.423325,288.133897 C439.387416,288.133733 439.351506,288.133536 439.315629,288.133536 L439.315629,288.133536 Z M450.88991,313 C450.375084,313 449.888349,312.48662 449.888349,311.943639 L449.888349,307.979483 L444.319229,307.979483 L444.319229,311.943639 C444.319229,312.51724 443.859106,312.97099 443.24897,312.999113 C443.236058,312.999671 443.223278,313 443.210563,313 C442.695705,313 442.208969,312.48662 442.208969,311.943639 L442.208969,307.979483 L439.189173,307.979483 C438.000573,307.97623 436.895784,307.298973 436.44095,306.294226 C436.225361,305.822604 436.123808,305.386103 436.120819,304.919376 L436.120819,301.894784 L432.056357,301.894784 C431.482755,301.894784 431.029005,301.434661 431.000882,300.824559 C430.989514,300.57894 431.08834,300.333618 431.279157,300.133766 C431.487946,299.915088 431.778509,299.784526 432.056357,299.784526 L436.120819,299.784526 L436.120819,294.215441 L432.056357,294.215441 C431.482755,294.215441 431.029005,293.755318 431.000882,293.145183 C430.989514,292.899565 431.08834,292.654275 431.279157,292.454423 C431.487946,292.235713 431.778476,292.105183 432.056357,292.105183 L436.120819,292.105183 L436.120819,289.185725 C436.120819,288.28414 436.423275,287.498825 436.99553,286.914612 C437.564828,286.333585 438.378298,286.013585 439.286028,286.013585 L442.208969,286.013585 L442.208969,282.056361 C442.208969,281.48276 442.66906,281.02901 443.279196,281.000887 C443.29214,281 443.304921,281 443.317635,281 C443.832461,281 444.319229,281.513347 444.319229,282.056361 L444.319229,286.013585 L449.888349,286.013585 L449.888349,282.056361 C449.888349,281.48276 450.348439,281.02901 450.958575,281.000887 C450.97152,281 450.984267,281 450.997014,281 C451.51184,281 451.998575,281.513347 451.998575,282.056361 L451.998575,286.013585 L454.752022,286.013585 C455.198511,286.013585 455.668787,286.027713 456.080121,286.196517 C456.576187,286.400115 456.911268,286.610448 457.200549,286.899762 C457.492097,287.191277 457.708738,287.536246 457.902972,288.018251 C458.02473,288.324025 458.086726,288.681183 458.086726,289.078489 L458.086726,292.105183 L461.943648,292.105183 C462.51725,292.105183 462.970999,292.565306 462.999123,293.175441 C463.010457,293.42106 462.911665,293.666349 462.72088,293.866168 C462.512059,294.084879 462.221529,294.215441 461.943648,294.215441 L458.086726,294.215441 L458.086726,299.784526 L461.943648,299.784526 C462.51725,299.784526 462.970999,300.244649 462.999123,300.854817 C463.010457,301.100435 462.911665,301.345692 462.72088,301.545544 C462.512059,301.764255 462.221529,301.894784 461.943648,301.894784 L458.086726,301.894784 L458.086726,304.956074 C458.086726,304.97871 458.085708,305.00322 458.083539,305.033216 L458.083014,305.042119 C458.048024,305.816723 457.738636,306.539975 457.211818,307.07862 C456.676524,307.629027 455.906783,307.957175 455.099193,307.979614 C454.910051,307.984706 454.702445,307.987203 454.464909,307.987203 C454.251915,307.987203 454.034585,307.985232 453.824449,307.983359 C453.612835,307.981454 453.394026,307.979483 453.178108,307.979483 L451.998575,307.979483 L451.998575,311.943639 C451.998575,312.51724 451.538485,312.97099 450.928349,312.999113 C450.915437,312.999671 450.90269,313 450.88991,313 L450.88991,313 Z" id="technology-icon"></path>
            </g>
        </g>
    </g>
</svg>