<?xml version="1.0" encoding="UTF-8"?>
<svg width="23px" height="31px" viewBox="0 0 23 31" version="1.1" xmlns="http://www.w3.org/2000/svg" xmlns:xlink="http://www.w3.org/1999/xlink">
    <!-- Generator: Sketch 60.1 (88133) - https://sketch.com -->
    <title>water-delivery-icon</title>
    <desc>Created with Sketch.</desc>
    <g id="Page-1" stroke="none" stroke-width="1" fill="none" fill-rule="evenodd">
        <g id="UpEffect---Crowdfund-(Desktop)---V4" transform="translate(-388.000000, -2619.000000)" fill="#66C3B8">
            <g id="Group-30" transform="translate(337.000000, 2406.000000)">
                <g id="water-delivery-icon" transform="translate(51.000000, 213.000000)">
                    <path d="M11.1569167,3.6707875 C13.0659167,7.6659125 15.2509167,10.24085 16.974,12.3081625 C18.9826667,14.72035 20.286,16.4272875 20.286,19.722975 C20.286,24.830225 16.2111667,28.94935 11.1569167,28.94935 C6.10266667,28.94935 2.02783333,24.830225 2.02783333,19.722975 C2.02783333,16.42535 3.33116667,14.72035 5.33983333,12.3081625 C7.06291667,10.24085 9.246,7.6659125 11.1569167,3.6707875 M11.1473333,0.241401485 C10.73525,0.2452875 10.36725,0.5010375 10.2139167,0.8866 C8.24741667,5.8601625 5.83625,8.5281 3.78925,10.9867875 C1.74033333,13.445475 0,15.840225 0,19.722975 C0,25.938475 5.00825,30.999225 11.1569167,30.999225 C17.3055833,30.999225 22.3119167,25.938475 22.3119167,19.722975 C22.3119167,15.840225 20.5735,13.445475 18.5245833,10.9867875 C16.4756667,8.5281 14.0664167,5.8601625 12.098,0.8866 C11.94275,0.4932875 11.5651667,0.239475 11.1473333,0.241401485" id="Fill-1"></path>
                    <path d="M4.01260071,18 C3.44513312,18.0077753 2.99232508,18.4762367 3.00009861,19.043833 C3.00009861,23.4524238 6.54677105,26.999901 10.9563052,26.999901 C11.5237728,27.0076762 11.9901845,26.5567093 11.9999014,25.9871691 C12.0076749,25.4195728 11.5548669,24.9530552 10.9854559,24.9433361 L10.9563052,24.9433361 C7.63312168,24.9433361 5.05619693,22.3677705 5.05619693,19.043833 C5.06397046,18.4742928 4.61116242,18.0077753 4.04175145,18 L4.01260071,18 Z" id="Fill-4"></path>
                </g>
            </g>
        </g>
    </g>
</svg>